<?xml version="1.0" encoding="utf-8"?>
<!-- Generator: Adobe Illustrator 15.0.0, SVG Export Plug-In . SVG Version: 6.00 Build 0)  -->
<!DOCTYPE svg PUBLIC "-//W3C//DTD SVG 1.1//EN" "http://www.w3.org/Graphics/SVG/1.1/DTD/svg11.dtd">
<svg version="1.1" id="Calque_1" xmlns="http://www.w3.org/2000/svg" xmlns:xlink="http://www.w3.org/1999/xlink" x="0px" y="0px"
	 width="269.031px" height="120.528px" viewBox="0 0 269.031 120.528" enable-background="new 0 0 269.031 120.528"
	 xml:space="preserve">
<g>
	<g>
		<g>
			<path fill="#4B4A4C" d="M125.194,12.828h5.668v16.058h-3.916V17.759l-3.572,11.127h-3.294l-3.57-11.127v11.127h-3.917V12.828
				h5.667l3.479,10.805L125.194,12.828z"/>
			<path fill="#4B4A4C" d="M135.468,16.168c-1.289,0-2.187-0.806-2.187-1.981s0.898-1.958,2.187-1.958
				c1.268,0,2.166,0.829,2.166,1.958C137.634,15.362,136.735,16.168,135.468,16.168z M133.625,17.436h3.663v11.45h-3.663V17.436z"/>
			<path fill="#4B4A4C" d="M149.913,18.427c0.761,0.83,1.151,1.889,1.151,3.179v7.28h-3.686v-6.75c0-1.198-0.761-2.004-1.866-2.004
				c-1.175,0-1.936,0.807-1.936,2.004v6.75h-3.686v-11.45h3.686v1.521c0.807-1.175,1.936-1.751,3.387-1.751
				C148.162,17.206,149.152,17.62,149.913,18.427z"/>
			<path fill="#4B4A4C" d="M155.395,16.168c-1.29,0-2.188-0.806-2.188-1.981s0.898-1.958,2.188-1.958
				c1.267,0,2.165,0.829,2.165,1.958C157.56,15.362,156.661,16.168,155.395,16.168z M153.551,17.436h3.663v11.45h-3.663V17.436z"/>
			<path fill="#4B4A4C" d="M164.54,17.206c1.451,0,2.626,0.345,3.571,1.06s1.405,1.636,1.405,2.742h-3.317
				c-0.091-0.76-0.714-1.29-1.614-1.29c-0.806,0-1.381,0.415-1.381,0.968c0,0.368,0.184,0.599,0.761,0.783
				c0.576,0.207,0.806,0.276,1.82,0.484c1.082,0.253,1.681,0.415,2.626,0.945c0.943,0.529,1.475,1.382,1.475,2.511
				c0,1.083-0.484,1.958-1.452,2.649c-0.99,0.715-2.234,1.06-3.732,1.06c-1.544,0-2.811-0.368-3.802-1.106
				c-0.991-0.714-1.498-1.635-1.498-2.765h3.525c0.115,0.738,0.783,1.268,1.774,1.268c0.853,0,1.474-0.415,1.474-0.991
				c0-0.438-0.414-0.714-1.082-0.899c-0.416-0.092-0.6-0.161-1.153-0.276c-0.276-0.069-0.483-0.115-0.645-0.139
				c-2.442-0.576-3.663-1.704-3.663-3.34c0-1.083,0.46-1.958,1.381-2.649C161.914,17.551,163.087,17.206,164.54,17.206z"/>
			<path fill="#4B4A4C" d="M179.537,17.436v3.041h-2.536v8.409h-3.686v-8.409h-2.12v-3.041h2.12v-3.018h3.686v3.018H179.537z"/>
			<path fill="#4B4A4C" d="M192.99,23.933h-8.548c0.253,1.474,1.129,2.396,2.396,2.396c1.014,0,1.842-0.553,2.211-1.475h3.755
				c-0.346,1.244-1.059,2.258-2.189,3.063c-1.128,0.807-2.395,1.198-3.824,1.198c-1.82,0-3.294-0.553-4.469-1.682
				c-1.175-1.129-1.775-2.557-1.775-4.285c0-1.728,0.6-3.133,1.775-4.262c1.174-1.129,2.649-1.682,4.469-1.682
				s3.294,0.553,4.47,1.682c1.174,1.128,1.75,2.58,1.75,4.331C193.013,23.472,193.013,23.703,192.99,23.933z M188.521,16.353h-2.789
				l-3.409-3.525h3.686L188.521,16.353z M184.604,21.767h4.606c-0.299-1.106-1.198-1.774-2.303-1.774
				C185.779,19.993,184.996,20.592,184.604,21.767z"/>
			<path fill="#4B4A4C" d="M198.632,19.901c0.807-1.82,2.258-2.857,4.008-2.857v3.64c-2.395,0-4.008,1.106-4.008,2.833v5.369h-3.663
				v-11.45h3.663V19.901z"/>
			<path fill="#4B4A4C" d="M215.934,23.933h-8.547c0.253,1.474,1.129,2.396,2.396,2.396c1.013,0,1.841-0.553,2.21-1.475h3.756
				c-0.346,1.244-1.06,2.258-2.188,3.063c-1.13,0.807-2.397,1.198-3.826,1.198c-1.82,0-3.293-0.553-4.469-1.682
				c-1.175-1.129-1.773-2.557-1.773-4.285c0-1.728,0.598-3.133,1.773-4.262c1.175-1.129,2.649-1.682,4.469-1.682
				s3.294,0.553,4.469,1.682c1.176,1.128,1.751,2.58,1.751,4.331C215.956,23.472,215.956,23.703,215.934,23.933z M207.547,21.767
				h4.608c-0.299-1.106-1.199-1.774-2.304-1.774C208.723,19.993,207.94,20.592,207.547,21.767z"/>
		</g>
		<g>
			<path fill="#4B4A4C" d="M120.563,37.454h3.687v16.058h-3.687v-1.521c-0.943,1.175-2.165,1.751-3.663,1.751
				c-1.451,0-2.672-0.553-3.617-1.683c-0.944-1.128-1.429-2.557-1.429-4.285c0-1.729,0.484-3.133,1.429-4.263
				c0.944-1.128,2.166-1.682,3.617-1.682c1.498,0,2.719,0.577,3.663,1.751V37.454z M118.1,50.54c0.713,0,1.312-0.254,1.772-0.783
				c0.461-0.53,0.691-1.175,0.691-1.981c0-0.807-0.23-1.452-0.691-1.982c-0.461-0.506-1.059-0.76-1.772-0.76
				c-0.714,0-1.315,0.253-1.775,0.76c-0.483,0.53-0.714,1.175-0.714,1.982c0,0.806,0.231,1.452,0.714,1.981
				C116.785,50.286,117.386,50.54,118.1,50.54z"/>
			<path fill="#4B4A4C" d="M139.776,48.559h-8.546c0.252,1.475,1.129,2.396,2.396,2.396c1.014,0,1.843-0.552,2.212-1.474h3.754
				c-0.345,1.244-1.059,2.258-2.188,3.063c-1.128,0.807-2.396,1.199-3.825,1.199c-1.82,0-3.294-0.553-4.469-1.683
				c-1.175-1.128-1.774-2.557-1.774-4.285c0-1.729,0.599-3.133,1.774-4.263c1.174-1.128,2.649-1.682,4.469-1.682
				s3.295,0.553,4.47,1.682c1.174,1.129,1.75,2.581,1.75,4.332C139.799,48.098,139.799,48.329,139.776,48.559z M131.391,46.393
				h4.606c-0.299-1.106-1.197-1.774-2.303-1.774C132.566,44.619,131.783,45.218,131.391,46.393z"/>
			<path fill="#4B4A4C" d="M150.903,37.454h3.663v16.058h-3.663V37.454z"/>
			<path fill="#4B4A4C" d="M158.389,37.454h3.663l-0.46,6.428h-2.742L158.389,37.454z"/>
			<path fill="#4B4A4C" d="M169.952,37.454v16.058h-3.916V37.454H169.952z"/>
			<path fill="#4B4A4C" d="M183.821,43.052c0.76,0.83,1.152,1.889,1.152,3.18v7.28h-3.687v-6.75c0-1.198-0.761-2.005-1.866-2.005
				c-1.174,0-1.936,0.807-1.936,2.005v6.75h-3.686v-11.45h3.686v1.52c0.807-1.174,1.936-1.751,3.388-1.751
				C182.07,41.831,183.062,42.246,183.821,43.052z"/>
			<path fill="#4B4A4C" d="M196.078,42.062v3.041h-2.535v8.41h-3.686v-8.41h-2.121v-3.041h2.121v-3.018h3.686v3.018H196.078z"/>
			<path fill="#4B4A4C" d="M210.75,48.559h-8.547c0.253,1.475,1.129,2.396,2.396,2.396c1.014,0,1.844-0.552,2.213-1.474h3.755
				c-0.346,1.244-1.06,2.258-2.189,3.063c-1.128,0.807-2.396,1.199-3.823,1.199c-1.82,0-3.295-0.553-4.47-1.683
				c-1.175-1.128-1.773-2.557-1.773-4.285c0-1.729,0.599-3.133,1.773-4.263c1.175-1.128,2.65-1.682,4.47-1.682
				s3.295,0.553,4.469,1.682c1.174,1.129,1.751,2.581,1.751,4.332C210.774,48.098,210.774,48.329,210.75,48.559z M202.365,46.393
				h4.606c-0.298-1.106-1.197-1.774-2.303-1.774C203.54,44.619,202.755,45.218,202.365,46.393z M209.022,37.454l-3.41,3.524h-2.788
				l2.512-3.524H209.022z"/>
			<path fill="#4B4A4C" d="M217.546,44.527c0.806-1.82,2.257-2.856,4.008-2.856v3.64c-2.396,0-4.008,1.106-4.008,2.834v5.368h-3.663
				v-11.45h3.663V44.527z"/>
			<path fill="#4B4A4C" d="M226.115,40.794c-1.291,0-2.188-0.806-2.188-1.981c0-1.174,0.898-1.958,2.188-1.958
				c1.268,0,2.166,0.829,2.166,1.958C228.28,39.989,227.382,40.794,226.115,40.794z M224.272,42.062h3.664v11.45h-3.664V42.062z"/>
			<path fill="#4B4A4C" d="M243.554,48.559h-8.548c0.253,1.475,1.129,2.396,2.396,2.396c1.014,0,1.844-0.552,2.213-1.474h3.755
				c-0.346,1.244-1.061,2.258-2.189,3.063c-1.128,0.807-2.396,1.199-3.823,1.199c-1.821,0-3.295-0.553-4.47-1.683
				c-1.174-1.128-1.773-2.557-1.773-4.285c0-1.729,0.599-3.133,1.773-4.263c1.175-1.128,2.649-1.682,4.47-1.682
				c1.82,0,3.294,0.553,4.469,1.682c1.175,1.129,1.751,2.581,1.751,4.332C243.577,48.098,243.577,48.329,243.554,48.559z
				 M235.167,46.393h4.607c-0.299-1.106-1.197-1.774-2.303-1.774C236.343,44.619,235.56,45.218,235.167,46.393z"/>
			<path fill="#4B4A4C" d="M257.721,42.062v6.704c0,1.452-0.507,2.649-1.544,3.571c-1.037,0.945-2.373,1.406-4.008,1.406
				c-1.636,0-2.995-0.461-4.032-1.406c-1.037-0.922-1.566-2.119-1.566-3.571v-6.704h3.664v6.704c0,1.174,0.783,1.958,1.911,1.958
				c1.129,0,1.89-0.784,1.89-1.958v-6.704H257.721z"/>
			<path fill="#4B4A4C" d="M264.93,44.527c0.806-1.82,2.258-2.856,4.009-2.856v3.64c-2.396,0-4.009,1.106-4.009,2.834v5.368h-3.663
				v-11.45h3.663V44.527z"/>
		</g>
		<g>
			<path fill="#4B4A4C" d="M123.98,73.212h-9.705c0.301,1.914,1.822,3.204,3.758,3.204c1.59,0,2.996-0.991,3.433-2.375h2.397
				c-0.322,1.269-1.038,2.282-2.12,3.089c-1.084,0.807-2.328,1.222-3.734,1.222c-1.752,0-3.203-0.554-4.332-1.66
				c-1.153-1.107-1.729-2.513-1.729-4.218c0-1.706,0.577-3.112,1.729-4.218c1.129-1.106,2.58-1.66,4.332-1.66
				c1.752,0,3.204,0.553,4.333,1.66c1.129,1.106,1.682,2.513,1.705,4.241C124.048,72.751,124.025,72.982,123.98,73.212z
				 M118.033,68.534c-0.923,0-1.706,0.253-2.374,0.784c-0.669,0.53-1.106,1.221-1.314,2.074h7.444
				c-0.207-0.853-0.646-1.544-1.337-2.074C119.762,68.787,118.955,68.534,118.033,68.534z"/>
			<path fill="#4B4A4C" d="M131.123,66.805v1.982h-2.558v9.357h-2.374v-9.357h-2.098v-1.982h2.098v-2.927h2.374v2.927H131.123z"/>
			<path fill="#4B4A4C" d="M145.989,62.195h2.351v15.949h-2.351v-1.636c-1.06,1.222-2.444,1.844-4.127,1.844
				c-1.589,0-2.927-0.554-3.964-1.66c-1.06-1.107-1.59-2.513-1.59-4.218c0-1.706,0.53-3.112,1.59-4.218
				c1.037-1.106,2.375-1.66,3.964-1.66c1.683,0,3.067,0.623,4.127,1.845V62.195z M144.974,75.218
				c0.669-0.714,1.015-1.614,1.015-2.743c0-1.107-0.346-2.029-1.015-2.743c-0.691-0.714-1.567-1.083-2.627-1.083
				c-1.038,0-1.913,0.369-2.581,1.083c-0.692,0.714-1.037,1.636-1.037,2.743c0,1.129,0.345,2.028,1.037,2.743
				c0.668,0.714,1.543,1.083,2.581,1.083C143.407,76.301,144.282,75.932,144.974,75.218z"/>
			<path fill="#4B4A4C" d="M161.453,73.212h-9.704c0.299,1.914,1.821,3.204,3.757,3.204c1.591,0,2.996-0.991,3.434-2.375h2.397
				c-0.323,1.269-1.039,2.282-2.12,3.089c-1.084,0.807-2.329,1.222-3.734,1.222c-1.752,0-3.204-0.554-4.333-1.66
				c-1.153-1.107-1.729-2.513-1.729-4.218c0-1.706,0.576-3.112,1.729-4.218c1.129-1.106,2.581-1.66,4.333-1.66
				s3.203,0.553,4.333,1.66s1.683,2.513,1.707,4.241C161.522,72.751,161.499,72.982,161.453,73.212z M155.506,68.534
				c-0.923,0-1.706,0.253-2.374,0.784c-0.668,0.53-1.105,1.221-1.314,2.074h7.444c-0.207-0.853-0.645-1.544-1.336-2.074
				C157.235,68.787,156.428,68.534,155.506,68.534z"/>
			<path fill="#4B4A4C" d="M167.766,62.195h2.35v15.949h-2.35V62.195z"/>
			<path fill="#4B4A4C" d="M180.879,66.805h2.351v11.339h-2.351v-1.636c-1.06,1.222-2.442,1.844-4.125,1.844
				c-1.591,0-2.927-0.554-3.964-1.66c-1.06-1.107-1.591-2.513-1.591-4.218c0-1.706,0.531-3.112,1.591-4.218
				c1.037-1.106,2.373-1.66,3.964-1.66c1.684,0,3.066,0.623,4.125,1.845V66.805z M179.866,75.218
				c0.668-0.714,1.013-1.614,1.013-2.743c0-1.107-0.345-2.029-1.013-2.743c-0.692-0.714-1.567-1.083-2.628-1.083
				c-1.037,0-1.913,0.369-2.582,1.083c-0.691,0.714-1.037,1.636-1.037,2.743c0,1.129,0.346,2.028,1.037,2.743
				c0.669,0.714,1.545,1.083,2.582,1.083C178.299,76.301,179.174,75.932,179.866,75.218z"/>
			<path fill="#4B4A4C" d="M199.847,63.348c1.06,0.898,1.613,2.121,1.636,3.642h-2.443c-0.07-1.844-1.361-2.95-3.365-2.95
				c-1.914,0-3.181,0.944-3.181,2.488c0,3.965,9.404,0.969,9.404,7.053c0,1.452-0.576,2.628-1.705,3.48
				c-1.153,0.853-2.651,1.291-4.518,1.291c-1.866,0-3.343-0.484-4.449-1.429c-1.129-0.945-1.705-2.213-1.752-3.78h2.513
				c0.023,1.867,1.475,3.158,3.803,3.158c2.121,0,3.549-1.06,3.549-2.627c0-3.988-9.404-1.061-9.404-7.007
				c0-1.429,0.531-2.558,1.613-3.411c1.062-0.853,2.468-1.268,4.196-1.268C197.427,61.988,198.787,62.449,199.847,63.348z"/>
			<path fill="#4B4A4C" d="M214.413,73.212h-9.705c0.301,1.914,1.822,3.204,3.757,3.204c1.59,0,2.996-0.991,3.435-2.375h2.396
				c-0.322,1.269-1.037,2.282-2.121,3.089c-1.082,0.807-2.328,1.222-3.734,1.222c-1.751,0-3.203-0.554-4.333-1.66
				c-1.152-1.107-1.729-2.513-1.729-4.218c0-1.706,0.576-3.112,1.729-4.218c1.129-1.106,2.582-1.66,4.333-1.66
				c1.752,0,3.206,0.553,4.333,1.66c1.129,1.106,1.683,2.513,1.706,4.241C214.481,72.751,214.458,72.982,214.413,73.212z
				 M208.465,68.534c-0.922,0-1.706,0.253-2.374,0.784c-0.668,0.53-1.106,1.221-1.313,2.074h7.444
				c-0.207-0.853-0.645-1.544-1.336-2.074C210.194,68.787,209.387,68.534,208.465,68.534z M212.476,62.195l-3.318,3.503h-1.844
				l2.789-3.503H212.476z"/>
			<path fill="#4B4A4C" d="M226.834,73.443c-0.161,1.429-0.807,2.604-1.914,3.525c-1.105,0.922-2.443,1.384-3.987,1.384
				c-1.752,0-3.203-0.554-4.333-1.66c-1.152-1.107-1.729-2.513-1.729-4.218c0-1.706,0.576-3.112,1.729-4.218
				c1.129-1.106,2.581-1.66,4.333-1.66c1.544,0,2.858,0.462,3.987,1.384c1.106,0.944,1.752,2.12,1.914,3.525h-2.397
				c-0.347-1.659-1.775-2.858-3.504-2.858c-1.06,0-1.937,0.369-2.604,1.083c-0.692,0.714-1.038,1.636-1.038,2.743
				c0,1.129,0.346,2.028,1.038,2.743c0.667,0.714,1.544,1.083,2.604,1.083c1.752,0,3.181-1.175,3.526-2.858H226.834z"/>
			<path fill="#4B4A4C" d="M238.104,66.805v6.661c0,1.452-0.484,2.628-1.429,3.526c-0.945,0.898-2.19,1.36-3.734,1.36
				c-1.545,0-2.789-0.462-3.734-1.36c-0.968-0.898-1.453-2.075-1.453-3.526v-6.661h2.351v6.661c0,1.775,1.129,2.927,2.813,2.927
				c1.728,0,2.834-1.152,2.834-2.927v-6.661H238.104z"/>
			<path fill="#4B4A4C" d="M242.09,69.455c0.759-1.866,2.258-2.95,4.263-2.95v2.328c-2.65,0-4.263,1.406-4.263,3.711v5.601h-2.352
				V66.805h2.352V69.455z"/>
			<path fill="#4B4A4C" d="M248.012,65.123c-0.9,0-1.498-0.576-1.498-1.383c0-0.83,0.598-1.382,1.498-1.382
				c0.898,0,1.498,0.553,1.498,1.382C249.51,64.546,248.864,65.123,248.012,65.123z M246.836,66.805h2.351v11.339h-2.351V66.805z"/>
			<path fill="#4B4A4C" d="M256.932,66.805v1.982h-2.559v9.357h-2.375v-9.357h-2.097v-1.982h2.097v-2.927h2.375v2.927H256.932z"/>
			<path fill="#4B4A4C" d="M268.962,73.212h-9.704c0.3,1.914,1.821,3.204,3.756,3.204c1.591,0,2.997-0.991,3.436-2.375h2.396
				c-0.322,1.269-1.037,2.282-2.12,3.089c-1.083,0.807-2.328,1.222-3.734,1.222c-1.751,0-3.203-0.554-4.332-1.66
				c-1.153-1.107-1.729-2.513-1.729-4.218c0-1.706,0.576-3.112,1.729-4.218c1.129-1.106,2.581-1.66,4.332-1.66
				c1.752,0,3.204,0.553,4.333,1.66s1.684,2.513,1.706,4.241C269.031,72.751,269.008,72.982,268.962,73.212z M263.014,68.534
				c-0.922,0-1.704,0.253-2.373,0.784c-0.668,0.53-1.106,1.221-1.313,2.074h7.445c-0.208-0.853-0.646-1.544-1.338-2.074
				C264.744,68.787,263.937,68.534,263.014,68.534z M267.026,62.195l-3.32,3.503h-1.843l2.788-3.503H267.026z"/>
		</g>
		<g>
			<path fill="#4B4A4C" d="M123.05,92.865c1.033,1.103,1.563,2.505,1.563,4.207c0,1.701-0.53,3.102-1.563,4.206
				c-1.035,1.104-2.367,1.655-3.953,1.655c-1.7,0-3.08-0.62-4.137-1.839v6.228h-2.345V91.417h2.345v1.632
				c1.057-1.218,2.437-1.838,4.137-1.838C120.683,91.211,122.016,91.762,123.05,92.865z M121.188,99.806
				c0.666-0.712,1.011-1.609,1.011-2.734c0-1.104-0.345-2.022-1.011-2.736c-0.689-0.712-1.563-1.08-2.597-1.08
				c-1.057,0-1.93,0.368-2.596,1.08c-0.691,0.713-1.035,1.632-1.035,2.736c0,1.125,0.344,2.022,1.035,2.734
				c0.666,0.712,1.54,1.081,2.596,1.081C119.626,100.887,120.5,100.518,121.188,99.806z"/>
			<path fill="#4B4A4C" d="M138.882,91.417v6.642c0,1.448-0.481,2.621-1.424,3.517c-0.943,0.896-2.184,1.356-3.723,1.356
				c-1.541,0-2.781-0.46-3.723-1.356c-0.966-0.896-1.448-2.069-1.448-3.517v-6.642h2.345v6.642c0,1.77,1.125,2.918,2.803,2.918
				c1.724,0,2.826-1.149,2.826-2.918v-6.642H138.882z"/>
			<path fill="#4B4A4C" d="M153.935,92.865c1.035,1.103,1.562,2.505,1.562,4.207c0,1.701-0.527,3.102-1.562,4.206
				c-1.034,1.104-2.367,1.655-3.953,1.655c-1.7,0-3.079-0.62-4.136-1.839v1.632h-2.344V86.821h2.344v6.228
				c1.058-1.218,2.436-1.838,4.136-1.838C151.567,91.211,152.901,91.762,153.935,92.865z M152.073,99.806
				c0.667-0.712,1.011-1.609,1.011-2.734c0-1.104-0.345-2.022-1.011-2.736c-0.69-0.712-1.563-1.08-2.596-1.08
				c-1.058,0-1.932,0.368-2.598,1.08c-0.69,0.713-1.034,1.632-1.034,2.736c0,1.125,0.344,2.022,1.034,2.734
				c0.666,0.712,1.54,1.081,2.598,1.081C150.51,100.887,151.383,100.518,152.073,99.806z"/>
			<path fill="#4B4A4C" d="M159.564,86.821h2.345v15.904h-2.345V86.821z"/>
			<path fill="#4B4A4C" d="M167.813,89.74c-0.896,0-1.494-0.574-1.494-1.379c0-0.827,0.598-1.378,1.494-1.378
				c0.896,0,1.494,0.551,1.494,1.378C169.307,89.166,168.664,89.74,167.813,89.74z M166.641,91.417h2.345v11.308h-2.345V91.417z"/>
			<path fill="#4B4A4C" d="M182.681,91.417h2.345v15.904h-2.345v-6.228c-1.056,1.219-2.435,1.839-4.113,1.839
				c-1.586,0-2.918-0.551-3.953-1.655c-1.057-1.104-1.585-2.505-1.585-4.206c0-1.701,0.528-3.104,1.585-4.207
				c1.035-1.103,2.367-1.654,3.953-1.654c1.679,0,3.057,0.62,4.113,1.838V91.417z M181.67,99.806
				c0.666-0.712,1.011-1.609,1.011-2.734c0-1.104-0.345-2.022-1.011-2.736c-0.689-0.712-1.563-1.08-2.62-1.08
				c-1.034,0-1.907,0.368-2.573,1.08c-0.69,0.713-1.035,1.632-1.035,2.736c0,1.125,0.345,2.022,1.035,2.734
				c0.666,0.712,1.54,1.081,2.573,1.081C180.108,100.887,180.981,100.518,181.67,99.806z"/>
			<path fill="#4B4A4C" d="M199.963,91.417v6.642c0,1.448-0.482,2.621-1.425,3.517c-0.942,0.896-2.184,1.356-3.723,1.356
				c-1.54,0-2.781-0.46-3.723-1.356c-0.965-0.896-1.448-2.069-1.448-3.517v-6.642h2.344v6.642c0,1.77,1.126,2.918,2.803,2.918
				c1.724,0,2.827-1.149,2.827-2.918v-6.642H199.963z"/>
			<path fill="#4B4A4C" d="M215.911,97.807h-9.676c0.299,1.907,1.816,3.194,3.747,3.194c1.586,0,2.987-0.989,3.423-2.368h2.391
				c-0.322,1.265-1.035,2.276-2.115,3.08c-1.08,0.805-2.321,1.219-3.723,1.219c-1.746,0-3.193-0.551-4.32-1.655
				c-1.149-1.104-1.724-2.505-1.724-4.206c0-1.701,0.575-3.104,1.724-4.207c1.127-1.103,2.574-1.654,4.32-1.654
				c1.747,0,3.195,0.551,4.321,1.654s1.678,2.505,1.701,4.229C215.979,97.346,215.957,97.577,215.911,97.807z M209.982,93.142
				c-0.92,0-1.7,0.252-2.367,0.781c-0.667,0.528-1.104,1.219-1.311,2.069h7.425c-0.208-0.85-0.645-1.541-1.334-2.069
				C211.705,93.394,210.9,93.142,209.982,93.142z"/>
		</g>
		<g>
			<defs>
				<path id="SVGID_1_" d="M97.611,61.565c0.006,0.087,0.014,0.269,0.021,0.536c0.021-0.979-0.009-1.599-0.021-1.785V61.565z"/>
			</defs>
			<clipPath id="SVGID_2_">
				<use xlink:href="#SVGID_1_"  overflow="visible"/>
			</clipPath>
			
				<linearGradient id="SVGID_3_" gradientUnits="userSpaceOnUse" x1="-344.1655" y1="1048.2627" x2="-343.1655" y2="1048.2627" gradientTransform="matrix(152.6465 0 0 -152.6465 52480.7969 160074.7656)">
				<stop  offset="0" style="stop-color:#4A494B"/>
				<stop  offset="1" style="stop-color:#6D6F71"/>
			</linearGradient>
			<rect x="97.611" y="60.315" clip-path="url(#SVGID_2_)" fill="url(#SVGID_3_)" width="0.042" height="1.785"/>
		</g>
		<g>
			<defs>
				<path id="SVGID_4_" d="M0.006,62.101c0.007-0.267,0.016-0.449,0.021-0.536v-1.25C0.016,60.501-0.012,61.122,0.006,62.101"/>
			</defs>
			<clipPath id="SVGID_5_">
				<use xlink:href="#SVGID_4_"  overflow="visible"/>
			</clipPath>
			
				<linearGradient id="SVGID_6_" gradientUnits="userSpaceOnUse" x1="-342.8145" y1="1048.252" x2="-342.3145" y2="1048.252" gradientTransform="matrix(152.9099 0 0 -152.9099 52419.5703 160349.3125)">
				<stop  offset="0" style="stop-color:#4A494B"/>
				<stop  offset="1" style="stop-color:#6D6F71"/>
			</linearGradient>
			<rect x="-0.012" y="60.315" clip-path="url(#SVGID_5_)" fill="url(#SVGID_6_)" width="0.039" height="1.785"/>
		</g>
		<g>
			<g>
				<g>
					
						<linearGradient id="SVGID_7_" gradientUnits="userSpaceOnUse" x1="46" y1="595.2129" x2="143.6377" y2="595.2129" gradientTransform="matrix(1 0 0 -1 -46 656)">
						<stop  offset="0" style="stop-color:#B9B8B9"/>
						<stop  offset="1" style="stop-color:#6D6F70"/>
					</linearGradient>
					<path fill="url(#SVGID_7_)" d="M97.611,61.566V20.083c0-0.55-0.343-1.042-0.858-1.232L65.935,7.479L49.273,1.332
						c-0.146-0.055-0.301-0.082-0.455-0.082c-0.152,0-0.307,0.026-0.454,0.082L31.627,7.507L0.886,18.851
						c-0.516,0.19-0.859,0.683-0.859,1.232v41.483c-0.05,0.852-0.477,10.72,5.069,22.765c3.949,8.577,11.638,19.497,26.531,28.263
						c4.801,2.826,10.345,5.43,16.761,7.659c0.141,0.049,0.286,0.073,0.43,0.073c0.146,0,0.292-0.024,0.432-0.073
						c6.383-2.216,11.901-4.805,16.685-7.614c14.944-8.774,22.651-19.717,26.606-28.308C98.087,72.286,97.66,62.417,97.611,61.566z"
						/>
					<g>
						
							<linearGradient id="SVGID_8_" gradientUnits="userSpaceOnUse" x1="92.3438" y1="594.792" x2="143.638" y2="594.792" gradientTransform="matrix(1 0 0 -1 -46 656)">
							<stop  offset="0" style="stop-color:#4A4A4B"/>
							<stop  offset="1" style="stop-color:#6D6F70"/>
						</linearGradient>
						<path fill="url(#SVGID_8_)" d="M97.631,62.1c0.021-0.979-0.009-1.598-0.021-1.784v1.25
							C97.616,61.652,97.626,61.833,97.631,62.1z"/>
						
							<linearGradient id="SVGID_9_" gradientUnits="userSpaceOnUse" x1="46" y1="594.792" x2="95.2017" y2="594.792" gradientTransform="matrix(1 0 0 -1 -46 656)">
							<stop  offset="0" style="stop-color:#4A4A4B"/>
							<stop  offset="1" style="stop-color:#6D6F70"/>
						</linearGradient>
						<path fill="url(#SVGID_9_)" d="M0.027,60.316c-0.011,0.187-0.04,0.806-0.021,1.784c0.007-0.267,0.016-0.448,0.021-0.534
							V60.316z"/>
					</g>
				</g>
				<g>
					
						<linearGradient id="SVGID_10_" gradientUnits="userSpaceOnUse" x1="94.8184" y1="645.959" x2="143.6099" y2="645.959" gradientTransform="matrix(1 0 0 -1 -46 656)">
						<stop  offset="0" style="stop-color:#B9B8B9"/>
						<stop  offset="1" style="stop-color:#6D6F70"/>
					</linearGradient>
					<path fill="url(#SVGID_10_)" d="M49.273,1.332l16.662,6.147l30.817,11.372c0.516,0.19,0.857,0.683,0.857,1.232v-1.25
						c0-0.55-0.342-1.042-0.857-1.232L65.935,6.229L49.273,0.082C49.127,0.027,48.973,0,48.818,0v1.25
						C48.973,1.25,49.127,1.276,49.273,1.332z"/>
					
						<linearGradient id="SVGID_11_" gradientUnits="userSpaceOnUse" x1="46.0269" y1="645.959" x2="94.8184" y2="645.959" gradientTransform="matrix(1 0 0 -1 -46 656)">
						<stop  offset="0" style="stop-color:#B9B8B9"/>
						<stop  offset="1" style="stop-color:#6D6F70"/>
					</linearGradient>
					<path fill="url(#SVGID_11_)" d="M0.886,18.851L31.627,7.507l16.737-6.175c0.146-0.055,0.301-0.082,0.454-0.082V0
						c-0.152,0-0.307,0.027-0.454,0.082L31.627,6.256L0.886,17.601c-0.516,0.19-0.859,0.682-0.859,1.232v1.25
						C0.027,19.533,0.37,19.042,0.886,18.851z"/>
				</g>
				<path fill="#CB2D27" d="M87.646,80.238c4.925-10.697,4.547-19.46,4.502-20.219V23.182c0-0.488-0.303-0.926-0.762-1.094
					L64.019,11.989v93.387C77.288,97.583,84.134,87.867,87.646,80.238z"/>
				<path fill="#F9CA31" d="M48.415,6.529l-14.862,5.484v93.323c4.264,2.511,9.187,4.823,14.884,6.801
					c0.124,0.043,0.253,0.065,0.382,0.065c0.13,0,0.259-0.021,0.384-0.065c5.668-1.968,10.567-4.268,14.816-6.761V11.989
					L49.224,6.529C48.963,6.432,48.676,6.432,48.415,6.529z"/>
				<path fill="#19B14B" d="M6.252,22.087c-0.458,0.168-0.763,0.605-0.763,1.094v36.837c-0.043,0.759-0.422,9.521,4.502,20.219
					c3.506,7.617,10.334,17.312,23.562,25.098V12.013L6.252,22.087z"/>
			</g>
			<g>
				<path fill="#37140E" d="M84.646,51.549c0.022-0.619-0.168-1.209-0.615-1.762c-0.067-0.083-0.141-0.223-0.214-0.226
					c-0.391-0.013-0.595-0.12-0.696-0.277c-0.026-0.042-0.047-0.087-0.061-0.134c-0.004-0.004-0.01-0.01-0.014-0.015
					c-0.159-0.01-0.342-0.072-0.558-0.187c-0.055-0.028-0.112-0.062-0.171-0.097c0.277-0.126,0.514-0.232,0.732-0.332
					c0.02-0.25,0.024-0.484-0.138-0.623c-0.619-0.063-1.244-0.232-1.839-0.155c-0.458,0.059-0.883,0.414-1.313,0.654
					c-0.215,0.122-0.432,0.245-0.643,0.374c-0.033-0.043-0.067-0.093-0.105-0.147c0.103-0.042,0.208-0.083,0.313-0.125
					c-0.082-0.123-0.143-0.327-0.247-0.353c-0.383-0.092-0.782-0.132-1.176-0.183c-0.126-0.016-0.325,0.044-0.375-0.022
					c-0.715-0.916-1.782-0.898-2.777-1.077c-0.419-0.077-0.84-0.147-1.027-0.179c-0.254,0.407-0.345,0.729-0.519,0.784
					c-0.192,0.061-0.614-0.063-0.673-0.21c-0.32-0.815-0.516-0.115-0.773,0.047c-0.068-0.299-0.133-0.591-0.203-0.9
					c-0.363,0.151-0.655,0.339-0.968,0.383c-0.22,0.03-0.469-0.136-0.704-0.214c0.435-0.248-0.502-0.817,0.233-0.997
					c-0.072-0.155-0.115-0.418-0.217-0.444c-0.802-0.191-1.397-1.254-2.458-0.397c-0.024-0.395-0.038-0.6-0.049-0.775
					c0.548,0.052,1.03,0.099,1.647,0.159c0.043,0.022,0.342,0.27,0.431,0.21c0.574-0.388,0.917-0.096,1.305,0.292
					c0.146,0.144,0.428,0.151,0.652,0.212c0.245,0.069,0.494,0.128,0.841,0.214c-0.255,0.211-0.36,0.294-0.462,0.38
					c0.021,0.048,0.043,0.096,0.065,0.145c0.271-0.057,0.541-0.115,0.849-0.18c0.336,0.685,0.737,1.137,1.641,0.573
					c0.48-0.298,0.685,0.14,0.531,0.885c0.529-0.331,0.908-0.5,1.199-0.765c0.662-0.604-0.301-1.101-0.176-1.789
					c0.974,0.91,1.078-0.569,1.749-0.56c0.033,0,0.068-0.354,0.115-0.624c0.136-0.108,0.377-0.3,0.639-0.506
					c-0.346-0.367-0.635-0.674-0.947-1.004c0.212-0.265,0.157-0.564-0.316-0.658c-0.853-0.173-0.808-0.495-0.259-1.026
					c0.163-0.155,0.176-0.46,0.26-0.698c-0.047-0.011-0.095-0.021-0.141-0.032c-0.063,0.145-0.127,0.292-0.188,0.438
					c-0.104-0.066-0.286-0.123-0.297-0.201c-0.036-0.283-0.013-0.575-0.013-0.863c0.083-0.057,0.166-0.112,0.25-0.167
					c-0.635-0.429-1.27-0.856-1.759-1.183c0.177-0.226,0.318-0.405,0.383-0.488c-0.79-0.441-1.415-0.79-1.896-1.059
					c0.145-0.44,0.357-0.767,0.271-0.898c-0.118-0.18-0.456-0.264-0.711-0.299c-0.39-0.055-0.898,0.119-1.168-0.073
					c-0.586-0.415-1.018-0.329-1.578,0.02c-0.425,0.264-0.948,0.293-1.523-0.22c0.333-0.148,0.612-0.391,0.795-0.332
					c0.771,0.246,1.049-0.171,1.303-0.816c-0.245-0.098-0.448-0.18-0.554-0.224c0.161-0.459,0.316-0.906,0.521-1.489
					c0.597,0.273,1.218,0.682,1.896,0.833c0.67,0.146,1.397,0.031,2.13,0.031c-0.15-0.364-0.344-0.832-0.617-1.493
					c-0.372-0.029-0.909-0.092-1.45-0.114c-0.552-0.021-1.105-0.005-1.59-0.005c-0.136-0.57-0.277-1.204-0.437-1.834
					c-0.204-0.798-0.727-1.054-1.627-0.7c-0.603,0.236-0.614,0.759-0.381,1.243c-0.19,0.141-0.488,0.343-0.479,0.359
					c0.376,0.618-0.33,0.572-0.507,1.005c-0.053-0.552-0.09-0.942-0.107-1.129c-0.714-0.478-1.313-0.876-1.769-1.183
					c0.227-0.904,0.421-1.687,0.646-2.583c-0.122-0.016-0.351-0.11-0.545-0.062c-0.936,0.229-1.859,0.501-2.791,0.747
					c-0.151,0.04-0.322-0.008-0.478,0.02c-0.405,0.073-0.827,0.118-1.207,0.266c-0.26,0.101-0.455,0.369-0.695,0.542
					c-0.579,0.417-1.264,0.296-1.454-0.376c-0.17-0.599-0.596-0.426-0.901-0.428c-0.313-0.004-0.629,0.213-1.036,0.37
					c0.422,0.315,0.646,0.483,0.851,0.636c-0.357,0.198-0.783,0.291-0.916,0.538c-0.389,0.723-0.906,0.854-1.464,0.354
					c0.161-0.26,0.311-0.502,0.542-0.873c-0.693,0.036-1.184,0.062-1.573,0.083c0.171-0.696,0.318-1.293,0.458-1.861
					c-0.481-0.137-0.792-0.226-1.104-0.314h-1.137c-0.463,0.599-0.867,1.263-1.419,1.763c-0.217,0.196-1.002,0.178-1.123-0.008
					c-0.454-0.694-1.27-0.67-1.83-1.11c-0.129-0.102-0.342-0.152-0.513-0.143c-0.964,0.046-1.959,0.02-2.627,0.923
					c0.131,0.208,0.305,0.476,0.48,0.745c0.451-0.083,1.055-0.104,1.235,0.161c0.273,0.401,0.251,1.002,0.383,1.672
					c-0.312-0.053-0.618-0.104-0.918-0.154c0.406,0.221,0.781,0.519,1.115,0.924c0.309,0.372,0.342,0.972,0.459,1.341
					c-0.33,0.294-0.839,0.599-0.796,0.737c0.126,0.414,0.391,0.875,0.743,1.104c0.454,0.297,1.055,0.356,1.568,0.579
					c0.478,0.208,0.921,0.498,1.38,0.751c-0.52,0.919-1.001,1.274-1.951,0.987c-0.491-0.147-1.144,0.21-1.713,0.368
					c-0.422,0.118-0.829,0.281-1.277,0.434c-0.225-0.45-0.426-0.853-0.654-1.314c-1.079,0.173-0.813-0.979-1.294-1.462
					c0.326-0.088,0.652-0.177,1.199-0.324c-0.236-0.509-0.542-0.94-0.633-1.413c-0.181-0.938-1.136-1.36-1.375-2.254
					c-0.104-0.383-0.419-0.708-0.543-1.158c0.37,0.017,0.736,0.032,1.098,0.057c-0.249-0.48-0.445-0.861-0.706-1.362
					c-0.721,0.104-1.569,0.108-2.313,0.387c-0.35,0.131-0.499,0.798-0.737,1.22c0.314,0.035,0.628,0.069,1.063,0.118
					c1.151,1.69,1.151,1.69,0.86,2.708c-0.208-0.275-0.505-0.485-0.531-0.729c-0.096-0.842-0.711-1.054-1.359-1.192
					c-0.394-0.083-0.823-0.057-1.229-0.013c-0.593,0.064-1.059,0.156-1.335-0.651c-0.16-0.472-0.77-0.878-1.471-0.62
					c-0.181,0.066-0.415-0.014-0.592,0.054c-0.411,0.159-0.828,0.33-1.181,0.583c-0.084,0.061,0.088,0.461,0.117,0.708
					c0.021,0.204-0.021,0.416,0.009,0.617c0.067,0.448,0.104,0.914,0.257,1.333c0.13,0.356,0.383,0.679,0.631,0.977
					c0.171,0.205,0.424,0.337,0.539,0.426c0.204-0.094,0.449-0.314,0.641-0.275c0.395,0.082,0.798,0.248,1.133,0.474
					c0.5,0.336,0.917,0.54,1.22-0.423c0.271,0.329,0.428,0.52,0.489,0.594c-0.181,1.085-1.069,0.922-1.686,1.24
					c-0.321,0.167-0.7,0.968-0.612,1.058c0.567,0.587,0.056,0.823-0.24,1.176c-0.109,0.131-0.085,0.365-0.139,0.548
					c-0.147,0.511-0.303,1.02-0.492,1.653c-0.211-0.25-0.282-0.326-0.343-0.409c-0.986-1.294-1.3-1.327-2.504-0.253
					c-0.32,0.287-0.954,0.094-0.939-0.333c0.042-1.262-0.979-1.604-1.887-2.349c0.146-0.245,0.278-0.634,0.545-0.873
					c0.583-0.525,1.16-1.013,0.939-2.021c-0.715,0.072-1.394,0.162-2.073,0.196c-0.251,0.013-0.616-0.022-0.743-0.183
					c-0.417-0.527-0.849-0.292-1.207-0.045c-0.521,0.363-0.944,0.869-1.464,1.234c-0.292,0.203-0.696,0.242-1.047,0.363
					c-0.226,0.077-0.542,0.105-0.653,0.267c-0.223,0.327-0.332,0.732-0.519,1.172c0.33,0.616,0.781,1.112,1.656,0.558
					c-0.088,0.374-0.073,0.737-0.248,0.941c-0.253,0.299-0.622,0.627-0.979,0.676c-0.521,0.073-0.619-0.169-0.696-0.667
					c-0.027-0.179-0.298-0.394-0.497-0.452c-0.354-0.102-0.738-0.121-1.111-0.133c-0.797-0.028-1.612-0.086-2.265,0.636
					c0.224,0.033,0.418,0.062,0.657,0.099c-0.259,0.132-0.48,0.206-0.652,0.34c-0.21,0.168-0.347,0.45-0.573,0.572
					c-0.611,0.33-0.84,1.311-0.419,1.837c-0.651,0.463-1.19,1.246-2.21,0.711c-0.224-0.118-0.771,0.081-0.568,0.68
					c0.055,0.164-0.093,0.413-0.187,0.602c-0.101,0.21-0.368,0.408-0.353,0.594c0.052,0.639,0.197,1.268,0.323,2.001
					c0.759-0.259,1.419-0.484,2.166-0.739v0.6c0.479,0.165,0.832,0.286,1.361,0.468c0.094-0.277,0.218-0.64,0.37-1.083
					c0.167,0.199,0.336,0.474,0.575,0.659c0.261,0.2,0.586,0.43,0.883,0.434c0.308,0.004,0.611-0.271,0.931-0.381
					c0.162-0.057,0.356-0.02,0.536-0.023c-0.341,0.454,0.707,0.817,0.074,1.338c-0.154,0.126-0.213,0.65-0.096,0.763
					c0.198,0.192,0.582,0.292,0.872,0.265c0.567-0.053,1.121-0.221,1.681-0.344c-0.072-0.051-0.144-0.104-0.216-0.155
					c0.135-0.269,0.2-0.652,0.416-0.782c0.562-0.338,1.339-0.422,1.755-0.866c0.661-0.705,1.109-0.323,1.905,0.083
					c-0.643,0.276-1.084,0.574-1.561,0.645c-0.611,0.091-0.816,0.392-0.947,0.94c-0.088,0.373-1.118,0.373-0.597,0.943
					c-0.139,0.343-0.386,0.736-0.313,0.81c0.501,0.503,0.045,1.209,0.463,1.685c-0.749,0.566-1.68,0.729-2.276,1.488
					c-0.062,0.078-0.117,0.165-0.167,0.258c0.038,0.039,0.076,0.08,0.118,0.123c-0.079,0.054-0.159,0.11-0.246,0.17
					c-0.066,0.186-0.11,0.385-0.128,0.579c-0.118-0.046-0.236-0.125-0.354-0.247c0.185-0.127,0.34-0.235,0.48-0.332
					c0.037-0.102,0.08-0.2,0.128-0.292c-0.183-0.19-0.322-0.335-0.455-0.474c0.217-0.307,0.392-0.553,0.596-0.842
					c-0.341,0.128-0.54,0.232-0.75,0.272c-0.117,0.024-0.237,0.034-0.358,0.039c0.035,0.233,0.068,0.467,0.126,0.858
					c-0.569-0.071-0.762-0.095-0.866-0.109c-0.208,0.52-0.385,0.966-0.564,1.41c-0.062-0.026-0.124-0.052-0.185-0.079
					c0.018-0.277,0.038-0.554,0.052-0.808c-1.214-0.544-1.209-0.535-2.185-0.129c-0.15,0.064-0.385,0.033-0.538-0.042
					c-0.328-0.157-0.631-0.373-0.996-0.595c0.462-0.918,0.616-1.853,0.454-2.829c-0.022-0.141-0.029-0.342-0.118-0.403
					c-0.394-0.275-0.811-0.518-1.229-0.752c-0.429-0.242-0.855-0.596-1.313-0.656c-0.595-0.075-1.22,0.094-1.838,0.156
					c-0.162,0.14-0.158,0.374-0.139,0.625c0.218,0.099,0.454,0.206,0.733,0.331c-0.296,0.179-0.54,0.275-0.74,0.285
					c-0.064,0.234-0.255,0.411-0.762,0.426c-0.073,0.002-0.146,0.142-0.213,0.226c-0.693,0.856-0.766,1.802-0.397,2.81
					c0.054-0.055,0.107-0.109,0.162-0.165c0.469,0.418,0.938,0.837,1.254,1.118c0.576-0.539,0.948-1.099,1.456-1.283
					c0.362-0.132,1.011,0.123,1.35,0.415c0.788,0.679,0.095,1.34-0.248,1.94c0.67,0.522,1.267,1.016,1.895,1.462
					c0.207,0.149,0.492,0.201,0.749,0.258c0.417,0.095,0.839,0.153,1.26,0.236c0.945,0.186,1.885,0.418,2.838,0.557
					c0.941,0.137,1.922,0.071,2.838,0.292c1.712,0.412,3.39,0.96,5.075,1.475c0.305,0.092,0.571,0.31,0.864,0.447
					c1.093,0.516,1.833,1.2,2.3,2.456c0.348,0.93,1.446,1.663,2.344,2.289c1.262,0.877,1.923,2.427,1.59,3.947
					c0.031-0.014,0.063-0.027,0.093-0.041c-0.124,0.752-0.26,1.523-0.166,2.043c0.203,1.112,0.352,1.595,0.174,2.709
					c-0.36,2.258-3.445,22.724-4.124,23.062l14.813-0.31l14.811,0.31c-0.678-0.338-3.764-20.804-4.123-23.062
					c-0.177-1.114-0.028-1.598,0.174-2.709c0.179-0.976-0.463-2.833-0.298-3.814c0.005-0.029,0.011-0.059,0.017-0.09
					c0.154-0.119,0.313-0.225,0.479-0.322c-0.015-0.233-0.02-0.467-0.016-0.701c0.057-0.045,0.118-0.089,0.179-0.131
					c0.898-0.626,1.995-1.359,2.343-2.289c0.47-1.256,1.208-1.94,2.301-2.456c0.293-0.139,0.559-0.354,0.863-0.447
					c1.686-0.515,3.365-1.063,5.075-1.476c0.917-0.22,1.897-0.153,2.839-0.291c0.953-0.139,1.894-0.371,2.838-0.557
					c0.419-0.083,0.843-0.143,1.26-0.237c0.256-0.057,0.541-0.108,0.749-0.258c0.627-0.447,1.225-0.939,1.895-1.462
					c-0.081-0.142-0.181-0.285-0.275-0.432c0.511-0.458,0.862-0.894,1.285-0.034c0.146,0.296,0.836,0.318,1.126,0.728
					c0.018,0.024,0.221-0.073,0.333-0.124c0.214-0.101,0.457-0.174,0.631-0.322c0.497-0.425,1.232,0.026,1.712-0.511l0.039-1.472
					C85.02,51.975,84.819,51.682,84.646,51.549 M23.924,44.35c-0.075-0.366-0.13-0.646-0.201-0.996
					c0.379,0.046,0.733,0.087,1.272,0.154C24.546,43.861,24.26,44.087,23.924,44.35 M22.359,41.271
					c-0.572-0.24-1.203-0.34-1.808-0.503c0.01-0.075,0.021-0.147,0.031-0.222c0.655-0.198,1.307-0.394,2.085-0.629
					c0.071,0.291,0.132,0.543,0.228,0.932c0.684-0.104,1.435-0.218,2.185-0.334C24.427,41.411,23.176,41.616,22.359,41.271
					 M39.479,41.695c0.054-0.083,0.102-0.175,0.138-0.275c0.055-0.149,0.087-0.32,0.088-0.519c0.357,0.349,0.855,0.655,1.069,1.099
					c0.207,0.429,0.12,0.999,0.163,1.509c-0.14,0.012-0.279,0.018-0.417,0.019c-0.135,0.001-0.269-0.005-0.4-0.015
					c-0.075-0.006-0.148-0.015-0.22-0.023c-0.496-0.065-0.929-0.211-1.232-0.422c-0.116-0.082-0.213-0.172-0.288-0.271
					C38.676,42.404,39.187,42.156,39.479,41.695 M39.066,55.556c-0.136,0.403-0.338,0.498-0.741,0.526
					c-0.371,0.03-0.726,0.249-0.924,0.322c-0.026,0.045-0.035,0.089-0.033,0.13c0.092-0.083,0.24-0.095,0.301,0.049
					c0.294,0.694,0.658,1.354,1.028,2.01c-0.123-0.105-0.249-0.208-0.376-0.308c-0.633-0.489-1.342-0.883-2.012-1.328
					c-0.08-0.053-0.119-0.166-0.204-0.288c0.095-0.052,0.183-0.108,0.261-0.166c-0.738-0.183-1.44-0.478-2.191-0.605
					c-0.607-0.1-1.2-0.202-1.74-0.478c-0.169-0.042-0.336-0.081-0.501-0.12c-0.084-0.297-0.253-0.585-0.476-0.869
					c-0.086-0.112-0.196-0.355-0.152-0.4c0.29-0.299,0.614-0.566,0.938-0.832c0.235-0.194,0.484-0.37,0.814-0.617
					c0.04-0.226,0.119-0.624,0.182-1.024c0.096-0.6-0.379-1.047-1.152-1.167c-0.316-0.051-0.617-0.3-0.923-0.292
					c-0.345,0.008-0.72,0.146-1.018,0.33c-0.37,0.23-0.675,0.565-0.937,0.794c-0.822-0.723-1.753-0.936-2.145-1.967
					c0.317,0.12,0.599,0.323,0.866,0.305c0.379-0.024,0.841-0.108,1.102-0.349c0.365-0.337,0.576-0.84,0.876-1.308
					c-0.243-0.116-0.467-0.222-0.604-0.289c0.231-0.662,0.445-1.276,0.665-1.904c0.931,0.116,1.254-0.137,1.262-1.13
					c0.176,0.112,0.365,0.171,0.454,0.3c0.848,1.221,2.257,1.178,3.471,1.6c0.516,0.18,1.136,0.521,1.362,0.967
					c0.387,0.766,0.903,1.612,0.387,2.598c-0.33,0-0.679-0.026-1.021,0.013c-0.153,0.018-0.318,0.141-0.429,0.261
					c-0.242,0.271-0.449,0.57-0.819,1.048c0.062,0.45,0.367,0.996,1.228,1.207c0.423,0.102,0.765,0.527,1.152,0.794
					c0.233,0.161,0.478,0.309,0.725,0.448c0.233,0.131,0.477,0.246,0.67,0.344c0.1-0.055,0.303-0.253,0.418-0.212
					c0.173,0.061,0.285,0.293,0.511,0.554c0.03-0.006,0.171-0.027,0.38-0.063C39.459,54.874,39.188,55.19,39.066,55.556
					 M40.923,45.313c-0.646-0.412-1.159-0.741-1.671-1.067c0.024-0.082,0.045-0.163,0.069-0.246
					c0.555,0.057,1.108,0.116,1.759,0.183C41.029,44.55,40.989,44.843,40.923,45.313 M43.271,47.271
					c0.026-0.194,0.061-0.462,0.098-0.764c0.511,0.085,1.002,0.17,1.491,0.254c0.018,0.336,0.033,0.659,0.048,0.959
					C44.367,47.571,43.843,47.428,43.271,47.271 M44.805,46.266c-0.369-0.251-0.735-0.505-1.104-0.756
					c0.06-0.099,0.12-0.198,0.18-0.297c0.359,0.191,0.728,0.369,1.065,0.591C44.983,45.83,44.855,46.105,44.805,46.266
					 M44.635,44.633c-0.479-0.181-0.615-0.478-0.274-0.901c0.419-0.522,0.304-1.028,0.041-1.577
					c-0.22-0.458-0.352-0.956-0.522-1.435c0.097-0.07,0.196-0.138,0.294-0.208c0.617,0.513,1.233,1.026,1.907,1.586
					c-0.25,0.264-0.406,0.426-0.601,0.629C46.842,44.061,45.284,44.138,44.635,44.633 M66.326,32.99
					c0.098,0.451,0.68,0.998-0.372,1.156c-0.151-0.33-0.311-0.681-0.507-1.113C65.823,33.015,66.079,33,66.326,32.99 M64.28,36.582
					c-1.399,0.68-2.783,0.024-4.176-0.014C61.23,35.914,62.665,35.913,64.28,36.582 M60.585,34.369
					c0.031-0.285,0.06-0.572,0.089-0.857c0.085,0.002,0.172,0.004,0.257,0.006c0.174,0.192,0.348,0.385,0.709,0.788
					C61.185,34.331,60.886,34.351,60.585,34.369 M61.852,31.496c-0.573,1.076-1.431,1.45-2.244,0.789
					C60.431,31.995,61.097,31.763,61.852,31.496 M59.974,29.799c0.059,0.049,0.12,0.098,0.181,0.149
					c-0.341,0.766-0.493,1.717-1.92,1.663C58.896,30.923,59.436,30.361,59.974,29.799 M53.123,30.481
					c0.388-0.021,0.722-0.014,1.046-0.063c0.509-0.076,0.914-0.248,0.898-0.904c-0.004-0.188,0.274-0.546,0.425-0.546
					c0.781,0,1.565,0.069,2.343,0.157c0.509,0.057,1.009,0.187,1.479,0.277c-0.393,0.432-0.849,0.934-1.226,1.348
					c-0.478,0.064-0.891,0.118-1.234,0.163c-0.321-0.19-0.658-0.391-0.926-0.552c-0.11,0.501-0.181,0.823-0.27,1.239
					C54.813,31.185,53.373,32.765,53.123,30.481 M56.415,42.674c-0.108,0.277-0.645,0.388-0.899,0.527
					c-0.339-0.223-0.668-0.351-0.855-0.59c-0.136-0.175-0.213-0.593-0.101-0.733c0.58-0.735,0.999-1.502,1.124-2.457
					c0.122-0.93,0.956-1.24,1.702-1.374c1.421-0.253,2.87-0.352,4.308-0.5c0.143-0.015,0.295,0.07,0.671,0.168
					c-1.128,0.285-2.053,0.528-2.32,1.665c-0.023,0.108-0.251,0.18-0.395,0.248c-0.595,0.281-1.287,0.381-1.546,1.173
					c-0.077,0.236-0.552,0.34-0.847,0.507c0.161,0.264,0.313,0.513,0.609,0.997C57.083,42.023,56.674,42.013,56.415,42.674
					 M57.51,42.478c0.238,0.104,0.478,0.209,0.812,0.355c-0.134,0.298-0.268,0.596-0.399,0.894
					C57.257,43.442,57.125,42.98,57.51,42.478 M70.628,53.752c0.014,0.084-0.022,0.421,0.122,0.639
					c0.061,0.091,0.147,0.164,0.247,0.222c0.164,0.051,0.321,0.1,0.478,0.148c-0.148-0.013-0.326-0.062-0.478-0.148
					c-0.288-0.09-0.598-0.187-0.974-0.305c0.018,0.627,0.023,0.853,0.033,1.208c-0.358-0.665-0.322-0.571-0.885-0.356
					c-0.308,0.118-0.787-0.095-1.14-0.259c-0.216-0.1-0.303-0.457-0.518-0.584c-0.257-0.156-0.599-0.53-0.812,0.153
					c-0.008,0.023-0.016,0.047-0.026,0.07c0.009,0.074-0.02,0.149-0.102,0.195c-0.17,0.265-0.442,0.497-0.672,0.723
					c-0.025,0.026-0.127,0.009-0.229-0.027c-0.091,0.084-0.181,0.171-0.272,0.254c0.122,0.08,0.242,0.189,0.36,0.336
					c-0.406,0.098-0.805,0.194-1.214,0.292c-0.541,0.277-1.132,0.375-1.74,0.478c-0.686,0.117-1.333,0.374-2.001,0.556
					c0.012,0.004,0.023,0.006,0.034,0.01h-0.072c-0.05,0.014-0.101,0.028-0.152,0.041c0.08,0.058,0.166,0.113,0.262,0.164
					c-0.036,0.051-0.063,0.1-0.088,0.144c-0.203-0.045-0.411-0.128-0.611-0.171c0.011-0.059,0.023-0.119,0.035-0.177h0.554
					c0.014-0.004,0.026-0.006,0.038-0.01c-1.07-0.318,0.182-0.517-0.067-0.942c-0.198-0.073-0.554-0.292-0.924-0.321
					c-0.403-0.028-0.604-0.124-0.74-0.526c-0.048-0.144-0.121-0.278-0.204-0.417c-0.259,0.002-0.52,0.013-0.778,0.043
					c0.23-0.245,0.561-0.58,0.501-0.706c-0.32-0.668,0.225-0.992,0.44-1.444c0.387-0.82,0.885-1.608,1.132-2.469
					c0.22-0.764,0.357-1.431,1.258-1.667c0.693-0.181,1.358-0.476,2.192-0.776c-0.37,1.024-0.306,1.124,0.482,0.939
					c0.363-0.085,0.681-0.35,1.04-0.479c0.375-0.135,0.81-0.352,1.154-0.269c0.695,0.165,1.406,0.417,2.004,0.8
					c1.364,0.875,2.812,1.607,3.881,2.945c0.201,0.253,0.442,0.475,0.706,0.681c-0.077,0.079-0.159,0.165-0.254,0.263
					c0.207,0.142,0.428,0.295,0.728,0.501C72.455,54.44,71.532,52.794,70.628,53.752 M77.871,52.974
					c-0.154,0.075-0.388,0.105-0.539,0.042c-0.547-0.228-0.785-0.331-1.104-0.281c-0.087-0.06-0.177-0.101-0.271-0.12
					c-0.331-0.061-0.733,0.252-1.108,0.404c-0.011-0.202-0.028-0.498-0.043-0.795h1.757c-0.01-0.102-0.031-0.292-0.051-0.482
					c0.738,0.204,1.425,0.466,2.034,0.839C78.314,52.728,78.099,52.866,77.871,52.974 M78.823,52.292
					c-0.053-0.002-0.105-0.006-0.157-0.011c-0.032-0.004-0.094-0.366-0.061-0.513c0.007-0.028,0.016-0.048,0.029-0.056
					c0.423-0.295,0.729-0.092,1.055,0.541C79.344,52.272,79.075,52.299,78.823,52.292"/>
				<polygon fill="#28B24B" points="58.49,62.027 51.108,62.027 48.818,55.004 46.53,62.027 39.146,62.027 45.113,66.367 
					42.812,73.428 48.818,69.061 54.825,73.428 52.522,66.367 				"/>
			</g>
			
				<linearGradient id="SVGID_12_" gradientUnits="userSpaceOnUse" x1="121.5391" y1="561.7988" x2="107.7902" y2="581.7971" gradientTransform="matrix(1 0 0 -1 -46 656)">
				<stop  offset="0" style="stop-color:#221F1F"/>
				<stop  offset="1" style="stop-color:#221F1F;stop-opacity:0"/>
			</linearGradient>
			<path opacity="0.5" fill="url(#SVGID_12_)" enable-background="new    " d="M92.148,60.019V35.729
				c-4.016,13.498-15.897,28.276-33.064,39.258c-14.965,9.573-30.869,14.288-43.937,14.004c3.735,5.125,9.038,10.485,16.569,15.23
				c4.667,2.941,10.188,5.647,16.721,7.916c0.124,0.043,0.253,0.065,0.383,0.065c0.13,0,0.259-0.021,0.383-0.065
				c8.727-3.03,15.647-6.842,21.14-10.951c9.216-6.896,14.398-14.636,17.305-20.948C92.571,69.541,92.193,60.778,92.148,60.019z"/>
			
				<linearGradient id="SVGID_13_" gradientUnits="userSpaceOnUse" x1="68.3076" y1="641.7539" x2="87.7318" y2="616.2216" gradientTransform="matrix(1 0 0 -1 -46 656)">
				<stop  offset="0" style="stop-color:#FFFFFF"/>
				<stop  offset="0.4303" style="stop-color:#FFFFFF;stop-opacity:0.7333"/>
				<stop  offset="1" style="stop-color:#FFFFFF;stop-opacity:0"/>
			</linearGradient>
			<path opacity="0.7" fill="url(#SVGID_13_)" enable-background="new    " d="M91.386,22.087L49.224,6.529
				c-0.261-0.097-0.547-0.097-0.809,0l-27.093,9.997l-15.07,5.561c-0.458,0.168-0.763,0.605-0.763,1.094v6.004v30.833
				c-0.043,0.759-0.422,9.521,4.502,20.219c0.476,1.036,1.018,2.109,1.625,3.212c-1.542-16.72,14.497-37.84,39.909-50.636
				c14.039-7.069,28.415-10.324,40.581-9.937C92.008,22.52,91.746,22.22,91.386,22.087z"/>
			<g>
				<path fill="#4A494A" d="M11.45,81.071C6.525,70.374,6.904,61.61,6.948,60.853V24.015c0-0.489,0.305-0.926,0.763-1.094
					l27.3-10.074l14.213-6.318c-0.261-0.097-0.547-0.097-0.809,0l-14.862,5.484l-27.3,10.074c-0.458,0.168-0.763,0.605-0.763,1.094
					v36.837c-0.043,0.759-0.422,9.521,4.502,20.219c3.506,7.617,10.334,17.312,23.562,25.098c0.509,0.301,1.03,0.598,1.559,0.892
					c-0.034-0.02-0.068-0.039-0.101-0.058C21.783,98.383,14.956,88.688,11.45,81.071z"/>
			</g>
			<path fill="#4A494A" d="M92.148,60.019V23.182c0-0.488-0.833,35.797-0.833,35.797c0.044,0.757,0.422,9.521-4.501,20.218
				c-3.513,7.629-10.358,17.345-23.628,25.138c-4.249,2.493-14.366,7.867-14.366,7.867s0.259-0.021,0.383-0.065
				c5.668-1.968,10.567-4.268,14.816-6.761c13.269-7.792,20.115-17.509,23.627-25.138C92.571,69.541,92.193,60.778,92.148,60.019z"
				/>
		</g>
	</g>
</g>
</svg>
